<svg width="48" height="48" viewBox="0 0 48 48" fill="none" xmlns="http://www.w3.org/2000/svg">
<rect width="48" height="48" fill="#0069E3"/>
<g clip-path="url(#clip0_40_822)">
<g clip-path="url(#clip1_40_822)">
<g clip-path="url(#clip2_40_822)">
<path d="M35.5443 32.378L24.9595 11.2082C24.7511 10.7498 24.5427 10.6665 24.2927 10.6665C24.0843 10.6665 23.8343 10.7498 23.5843 11.1666C22.084 13.5419 21.4173 16.2923 21.4173 19.1677C21.4173 23.1683 23.4592 26.9189 26.4597 32.9614C26.7931 33.6282 27.0431 33.7532 27.6265 33.7532H34.9609C35.5026 33.7532 35.7944 33.5448 35.7944 33.1281C35.7944 32.9197 35.7527 32.7947 35.5443 32.378ZM20.1671 22.3765C19.3336 21.1263 19.0836 21.043 18.8752 21.043C18.6669 21.043 18.5419 21.1263 18.1668 21.8765L12.8744 32.4613C12.7077 32.7947 12.666 32.9197 12.666 33.0864C12.666 33.4198 12.9577 33.7532 13.5828 33.7532H21.0422C21.5423 33.7532 21.9174 33.3364 22.1257 32.5447C22.3758 31.5445 22.4591 30.6694 22.4591 29.6276C22.4591 26.7105 21.1672 23.8767 20.1671 22.3765Z" fill="white"/>
</g>
</g>
</g>
<defs>
<clipPath id="clip0_40_822">
<rect width="32" height="32" fill="white" transform="translate(8 8)"/>
</clipPath>
<clipPath id="clip1_40_822">
<rect width="32" height="32" fill="white" transform="translate(8 8)"/>
</clipPath>
<clipPath id="clip2_40_822">
<rect width="23.1283" height="23.0867" fill="white" transform="translate(12.666 10.6665)"/>
</clipPath>
</defs>
</svg>
