<svg enable-background="new 0 0 84 84" viewBox="0 0 84 84" xmlns="http://www.w3.org/2000/svg" xmlns:xlink="http://www.w3.org/1999/xlink"><clipPath id="a"><path d="m0 0h84v84h-84z"/></clipPath><g clip-path="url(#a)"><path d="m0 .1h84v84h-84z" fill="#860171"/><path d="m17.9 29.3c-.1-1.5 1.1-2.8 2.7-2.9 1.5.1 2.7 1.4 2.7 2.9.1 1.5-1.1 2.8-2.7 2.9-1.6 0-2.8-1.3-2.7-2.9m43.1 5-4.4.4v7.6c0 2.2 1.6 4.4 5.4 4.8 1.1.1 2.1.2 3.2.2 2.2 0 2.2 2.6-.1 2.6-2.5 0-7.9.2-7.9.2v7.4c2.5 0 5-.1 7.5-.4 2.4-.4 5.9-1.7 6-7s.2-17 .2-17l-3 .2s.1 4.7.1 7.6c0 5.1-7.1 4.4-7-.1 0-4.5 0-6.5 0-6.5m-36.5.6s-.1 7.6 0 12.2.6 10.7 7.3 10.7 7-7 7.1-10.5.2-13.6.2-13.6l-2.5.1c.1 4 0 8-.4 12-.6 5-7.7 6-8.4-.6-.3-3.6-.4-7.2-.2-10.8zm-5.4-1.4v11.9s-1.8 5.4-6 5.1v7.3c4.8 0 8.9-.8 8.9-7.5v-16.6zm35.2 8.6v-9.1c-5.6 0-13.5 1.3-13.5 9.3 0 2.2 0 3.8.1 5 .3 7 4.5 9.6 12.7 9.6v-5.8c-2.1 0-4.2-.1-6.3-.4-4.2-.5-5.1-7.9 0-8.2s7-.4 7-.4" fill="#fff"/></g></svg>