<?xml version="1.0" encoding="utf-8"?>
<!-- Generator: Adobe Illustrator 24.1.2, SVG Export Plug-In . SVG Version: 6.00 Build 0)  -->
<svg version="1.1" id="Layer_1" xmlns="http://www.w3.org/2000/svg" xmlns:xlink="http://www.w3.org/1999/xlink" x="0px" y="0px"
	 viewBox="0 0 84 84" style="enable-background:new 0 0 84 84;" xml:space="preserve">
<style type="text/css">
	.st0{clip-path:url(#SVGID_2_);}
	.st1{fill:#860171;}
	.st2{fill:#FFFFFF;}
</style>
<g>
	<defs>
		<rect id="SVGID_1_" width="84" height="84"/>
	</defs>
	<clipPath id="SVGID_2_">
		<use xlink:href="#SVGID_1_"  style="overflow:visible;"/>
	</clipPath>
	<g id="a" class="st0">
		<rect x="0" y="0.1" class="st1" width="84" height="84"/>
		<path class="st2" d="M17.9,29.3c-0.1-1.5,1.1-2.8,2.7-2.9c1.5,0.1,2.7,1.4,2.7,2.9c0.1,1.5-1.1,2.8-2.7,2.9
			C19,32.2,17.8,30.9,17.9,29.3 M61,34.3l-4.4,0.4v7.6c0,2.2,1.6,4.4,5.4,4.8c1.1,0.1,2.1,0.2,3.2,0.2c2.2,0,2.2,2.6-0.1,2.6
			c-2.5,0-7.9,0.2-7.9,0.2v7.4c2.5,0,5-0.1,7.5-0.4c2.4-0.4,5.9-1.7,6-7s0.2-17,0.2-17l-3,0.2c0,0,0.1,4.7,0.1,7.6
			c0,5.1-7.1,4.4-7-0.1C61,36.3,61,34.3,61,34.3 M24.5,34.9c0,0-0.1,7.6,0,12.2s0.6,10.7,7.3,10.7s7-7,7.1-10.5s0.2-13.6,0.2-13.6
			l-2.5,0.1c0.1,4,0,8-0.4,12c-0.6,5-7.7,6-8.4-0.6c-0.3-3.6-0.4-7.2-0.2-10.8L24.5,34.9z M19.1,33.5c0,0,0,8.4,0,11.9
			s-1.8,5.4-6,5.1v7.3c4.8,0,8.9-0.8,8.9-7.5V33.7L19.1,33.5z M54.3,42.1V33c-5.6,0-13.5,1.3-13.5,9.3c0,2.2,0,3.8,0.1,5
			c0.3,7,4.5,9.6,12.7,9.6v-5.8c-2.1,0-4.2-0.1-6.3-0.4c-4.2-0.5-5.1-7.9,0-8.2S54.3,42.1,54.3,42.1"/>
	</g>
</g>
</svg>
