<svg height="84" viewBox="0 0 84 84" width="84" xmlns="http://www.w3.org/2000/svg" xmlns:xlink="http://www.w3.org/1999/xlink"><clipPath id="a"><path d="m0 0h84v84h-84z"/></clipPath><g clip-path="url(#a)"><path d="m0 0h84v84h-84z" fill="#f90109" transform="translate(.001 .096)"/><path d="m-664.832 240.285c-4.807 0-9.783-3.348-9.833-3.382l-6.708-4.862a25.353 25.353 0 0 1 -5.136 4.068 28.108 28.108 0 0 1 -6.07 2.8 26.374 26.374 0 0 1 -8.089 1.272 26.728 26.728 0 0 1 -13.947-3.594 24.558 24.558 0 0 1 -7.039-6.418 18.766 18.766 0 0 1 -3.156-8.348 17.776 17.776 0 0 1 1.734-10.739 14.719 14.719 0 0 1 3.429-4.242 18.268 18.268 0 0 1 3.931-2.554 19.277 19.277 0 0 1 4.581-1.581h-.007a11.853 11.853 0 0 1 -2.408-2.875 12.234 12.234 0 0 1 -1.645-8.2 10.36 10.36 0 0 1 5.1-7.466 15.345 15.345 0 0 1 7.542-2.164h.1a18.24 18.24 0 0 1 6.91 1.449 16.922 16.922 0 0 0 1.731.586 2.876 2.876 0 0 0 .688.1 1.1 1.1 0 0 0 1-.558.851.851 0 0 1 .735-.457c.976 0 1.072 1.186 1.073 1.2l.638 8.654c0 .013-.052 1.265-.828 1.265s-.882-.567-.883-.572c-.022-.042-2.26-4.263-4.286-6.1a11.53 11.53 0 0 0 -7.313-3.12 8.29 8.29 0 0 0 -2.417.361 6.182 6.182 0 0 0 -4.157 3.98 7.191 7.191 0 0 0 -.1 3.921 13.346 13.346 0 0 0 2.388 4.84c4.822 6.513 27.185 27.484 27.41 27.695a6.592 6.592 0 0 0 1.006-1.854 22.8 22.8 0 0 0 1.351-6.783 6.615 6.615 0 0 0 -1.762-5.174 10.515 10.515 0 0 0 -5.542-2.861 1.2 1.2 0 0 1 -.8-.329.807.807 0 0 1 -.238-.595c.005-.663.776-.735.784-.735.058 0 6.275-.014 10.67-.014 2.561 0 3.979 0 4.215.014a.623.623 0 0 1 .633.6.646.646 0 0 1 -.633.657c-1.238.149-2.857 1.368-3.534 6.328-.748 5.471-3.761 12.242-3.792 12.309.078.062 8.409 6.645 11.794 8.736a9.338 9.338 0 0 0 5.082 1.518 16.648 16.648 0 0 0 2.739-.283l.413-.066a5.238 5.238 0 0 1 .8-.07c.709 0 .949.22 1.026.4a.746.746 0 0 1 -.233.757c-.483.486-2.993 1.977-8.025 2.444-.307.028-.614.042-.922.042zm-47.145-35.727c-2.209 0-3.954 1.8-5.074 3.159a13.43 13.43 0 0 0 -3.038 7.084c-.427 3.961.993 8.069 4.219 12.212a20.151 20.151 0 0 0 8.812 6.524 24.8 24.8 0 0 0 8.9 1.567 25.377 25.377 0 0 0 5.445-.558c3.744-.851 8.377-4.382 8.423-4.417l-.069-.064c-3-2.854-18.158-17.344-22.392-22.347-1.778-2.097-3.535-3.16-5.226-3.16z" fill="#fff" transform="translate(732.189 -169.196)"/></g></svg>