<svg enable-background="new 0 0 84 84" viewBox="0 0 84 84" xmlns="http://www.w3.org/2000/svg" xmlns:xlink="http://www.w3.org/1999/xlink"><clipPath id="a"><path d="m0 0h84v84h-84z"/></clipPath><g clip-path="url(#a)"><path d="m0 .1h84v84h-84z" fill="#111"/><g transform="translate(5 36.001)"><g fill="#fff"><path d="m16.5.2h-3.5c-.6 0-1.1.3-1.3.9l-2.2 4.8v-5.6h-3.2c-.6-.1-1.1.3-1.3.8l-5 11.1h3.4l3.4-7.4v7.4h3l3.6-7.4v7.4h3.1z"/><path d="m21.5.2h-2c-.6 0-1.2.5-1.2 1.2v10.8h3.1z"/><path d="m31 2.9v-2.7h-7.1c-.6 0-1.1.5-1.1 1.2v1.5h2.6v9.3h3.1v-9.3z"/><path d="m46.2 9.5v-2h3.5v-2.7h-3.5v-2h3.7v-2.6h-5.6c-.6 0-1.1.5-1.2 1.1v10.8h6.8v-2.6z"/><path d="m41.2 3.9c0-2.6-1.8-3.7-4.1-3.7h-3.5c-.6 0-1.2.5-1.2 1.2v10.8h3.1v-4.6l2.9 4.6h3.9l-3.8-4.9c1.6-.3 2.8-1.8 2.7-3.4zm-3.3.2c0 1.3-1.1 1.5-2.2 1.5-.2 0-.3.1-.3.3v-3.3h.3c1.1 0 2.2.2 2.2 1.5"/></g><path d="m60 12.2v-12h-3.9c-.6 0-1.2.5-1.2 1.2v1.4h1.9v9.4z" fill="#ef7d00"/><path d="m74 6.2c0-1.2-.4-2.5-1.1-3.5l-2.3 2.3c.7 1.6-.1 3.5-1.8 4.2-.8.3-1.6.3-2.4 0l-1.6 1.6c-.2.2-.5.3-.8.3-.2 0-.4-.1-.6-.2 1.2 1 2.6 1.6 4.2 1.6 3.5-.1 6.4-2.9 6.4-6.3zm-2.6-4.7c.2 0 .4.1.6.2-1.2-1.1-2.7-1.7-4.3-1.7-3.5 0-6.3 2.7-6.3 6.2 0 1.3.4 2.6 1.2 3.6l2.2-2.2c-.8-1.6-.1-3.6 1.5-4.3.9-.4 1.9-.4 2.8 0l1.5-1.5c.2-.2.5-.3.8-.3" fill="#ef7d00"/></g></g></svg>