<svg height="84" viewBox="0 0 84 84" width="84" xmlns="http://www.w3.org/2000/svg" xmlns:xlink="http://www.w3.org/1999/xlink"><clipPath id="a"><path d="m0 0h84v84h-84z"/></clipPath><g clip-path="url(#a)"><path d="m42.492 84.488a41.979 41.979 0 1 1 16.349-3.3 42 42 0 0 1 -16.349 3.3zm-6.973-55.123c-3.5 0-7.243 1.857-10.279 5.093a22.145 22.145 0 0 0 -5.766 12.619 21.388 21.388 0 0 0 9.488 20.092 29.223 29.223 0 0 0 36.5-2.451 30.414 30.414 0 0 0 3.29-41.463 29.787 29.787 0 0 0 -8.752-7.436 29.347 29.347 0 0 0 -11.291-3.583 30.01 30.01 0 0 0 -3.153-.167 29.263 29.263 0 0 0 -16.64 5.176 21.86 21.86 0 0 1 5.517-.705 22.442 22.442 0 0 1 2.422.132 22.7 22.7 0 0 1 20.256 20.716c.617 7.14-1.935 11.28-4.186 13.5a14.057 14.057 0 0 1 -9.778 4.009 13.646 13.646 0 0 1 -1.419-.08 10.16 10.16 0 0 1 -6.948-3.835 10.638 10.638 0 0 1 -2.2-7.741 10.939 10.939 0 0 1 2.939-6.447 8.462 8.462 0 0 1 6.057-2.156c.215 0 .437 0 .66.016a8.357 8.357 0 0 1 3.531 1.084 11.608 11.608 0 0 0 -9.1-6.3 9.717 9.717 0 0 0 -1.15-.068z" fill="#43bf38" transform="translate(-.508 -.479)"/></g></svg>