<svg xmlns="http://www.w3.org/2000/svg" xmlns:xlink="http://www.w3.org/1999/xlink" width="84" height="84" viewBox="0 0 84 84"><defs><style>.a{clip-path:url(#b);}.b{fill:#43bf38;}</style><clipPath id="b"><rect width="84" height="84"/></clipPath></defs><g id="a" class="a"><path class="b" d="M42.492,84.488a41.979,41.979,0,1,1,16.349-3.3A42,42,0,0,1,42.492,84.488ZM35.519,29.365c-3.5,0-7.243,1.857-10.279,5.093a22.145,22.145,0,0,0-5.766,12.619,21.388,21.388,0,0,0,9.488,20.092,29.223,29.223,0,0,0,36.5-2.451,30.414,30.414,0,0,0,3.29-41.463A29.787,29.787,0,0,0,60,15.819a29.347,29.347,0,0,0-11.291-3.583,30.01,30.01,0,0,0-3.153-.167,29.263,29.263,0,0,0-16.64,5.176,21.86,21.86,0,0,1,5.517-.705,22.442,22.442,0,0,1,2.422.132A22.7,22.7,0,0,1,57.111,37.388c.617,7.14-1.935,11.28-4.186,13.5a14.057,14.057,0,0,1-9.778,4.009,13.646,13.646,0,0,1-1.419-.08,10.16,10.16,0,0,1-6.948-3.835,10.638,10.638,0,0,1-2.2-7.741,10.939,10.939,0,0,1,2.939-6.447,8.462,8.462,0,0,1,6.057-2.156c.215,0,.437,0,.66.016a8.357,8.357,0,0,1,3.531,1.084,11.608,11.608,0,0,0-9.1-6.3,9.717,9.717,0,0,0-1.15-.068Z" transform="translate(-0.508 -0.479)"/></g></svg>