<svg height="84" viewBox="0 0 84 84" width="84" xmlns="http://www.w3.org/2000/svg" xmlns:xlink="http://www.w3.org/1999/xlink"><clipPath id="a"><path d="m0 0h84v84h-84z"/></clipPath><g clip-path="url(#a)"><path d="m0 0h84v84h-84z" fill="#ffdc00" transform="translate(.001 .096)"/><path d="m53.572 21.1-.95-.208c-.609-.134-1.485-.312-2.509-.52l-1.693-.3-1.886-.282-2.049-.238-2.079-.193c-.683 0-1.485-.089-2.123-.1h-2.183l.074 3.014c.624 0 1.292-.089 1.945-.1h4.039a11.2 11.2 0 0 1 1.96.119l1.826.163 1.648.193c1.01.134 1.856.252 2.465.356l.935.163a1.072 1.072 0 1 0 .46-2.094z" fill="#f2ab29" transform="translate(24.705 15.412)"/><path d="m56.983 27.122a5.046 5.046 0 1 1 -.423-3.836 5 5 0 0 1 .423 3.836z" fill="#fff" transform="translate(3.28 11.18)"/><path d="m36.734 20.5a1.054 1.054 0 0 1 -1.054 1.01 1.025 1.025 0 0 1 -1.025-1.01 1 1 0 0 1 .98-1.01h.178a2.108 2.108 0 0 0 -1.8 3.786 2.153 2.153 0 0 0 2.643-1.485 2.584 2.584 0 0 0 0-1.485z" fill="#333" transform="translate(21.484 15.474)"/><path d="m51.45 13.922h1.192a7.511 7.511 0 0 1 .836 0 6.994 6.994 0 0 1 .975.154 7.5 7.5 0 0 1 1.053.323 7.637 7.637 0 0 1 1.053.523 6.7 6.7 0 0 1 .975.692 5.48 5.48 0 0 1 1.393 1.815 4.271 4.271 0 0 1 .31.969 3.79 3.79 0 0 1 0 .892 3.991 3.991 0 0 1 -.108.754 4.424 4.424 0 0 1 -.17.569l-.108.246v.277.108a.688.688 0 0 0 0 .138.657.657 0 0 0 0 .185.681.681 0 0 0 .65.477h.217a4.606 4.606 0 0 0 1.082-8.737.28.28 0 0 0 -.356.092.26.26 0 0 0 0 .369c2.477 1.538 2.988 5.26 0 6.614v-.261a5.242 5.242 0 0 0 0-1 5.045 5.045 0 0 0 -.155-1.154 5.438 5.438 0 0 0 -.464-1.215 6.471 6.471 0 0 0 -1.78-2.076 7.623 7.623 0 0 0 -1.146-.738 8.59 8.59 0 0 0 -1.208-.523 8.359 8.359 0 0 0 -1.192-.292 7.867 7.867 0 0 0 -1.084-.108 8.119 8.119 0 0 0 -.929 0l-.712.108h-.449a.317.317 0 1 0 .155.615v.185zm-2.136 26.04a22.251 22.251 0 0 0 -6.967 0h-.108a22.176 22.176 0 0 0 -6.7 2.261c-3.731 1.677-1.13 5.937 1.78 4.23a20.461 20.461 0 0 1 11.379-2.968 1.8 1.8 0 0 0 1.002-3.446h-.387zm-44.092-7.429a20.123 20.123 0 0 1 -3.716 11.1 1.8 1.8 0 0 0 .86 3.115 1.817 1.817 0 0 0 1.787-.685 21.951 21.951 0 0 0 3.808-5.783v-.108a21.834 21.834 0 0 0 1.78-6.8c.65-4.045-4.35-4.168-4.505-.831zm53.273-9.905a7.889 7.889 0 0 0 -5.481-5.168c-10.45-3.276-24.523-3.784-33.626.246a14.351 14.351 0 0 0 -8.159 9.136 13.953 13.953 0 0 0 5.963 15.591 14.161 14.161 0 0 0 16.748-1.148c4.474-3.845 8.081-8.06 17.37-8.905a7.452 7.452 0 0 0 7.029-5.537 7.83 7.83 0 0 0 .232-1.092 11.921 11.921 0 0 0 .115-1.7 6.7 6.7 0 0 0 -.192-1.421zm-3.127 3.445a4.225 4.225 0 1 1 -.355-3.212 4.19 4.19 0 0 1 .355 3.212z" fill="#1c89dc" transform="translate(4.105 11.999)"/></g></svg>