<svg width="500" height="500" viewBox="0 0 500 500" fill="none" xmlns="http://www.w3.org/2000/svg">
<rect width="500" height="500" fill="#D5002B"/>
<path d="M206.295 298.32L176.799 206.912C172.637 192.942 165.559 189 154.759 189H100C104.307 190.764 107.149 201.855 107.149 201.855L133.583 293.654C136.641 305.178 146.166 311.242 156.978 311.242H215.015C210.853 310.496 206.295 298.32 206.295 298.32Z" fill="white"/>
<path d="M293.712 298.32L323.197 206.912C327.374 192.942 334.445 189 345.249 189H400C395.708 190.764 392.858 201.855 392.858 201.855L366.421 293.654C363.363 305.178 353.83 311.242 343.026 311.242H284.989C289.155 310.496 293.712 298.32 293.712 298.32Z" fill="white"/>
<path d="M282.349 189.724H217.916V311.246H282.349V189.724Z" fill="white"/>
</svg>
