<svg height="84" viewBox="0 0 84 84" width="84" xmlns="http://www.w3.org/2000/svg" xmlns:xlink="http://www.w3.org/1999/xlink"><clipPath id="a"><path d="m0 0h84v84h-84z"/></clipPath><g clip-path="url(#a)"><path d="m0 0h84v84h-84z" fill="#d5002b" transform="translate(.001 .096)"/><path d="m45.622 30.172c1.045-.182 2.158-3.2 2.158-3.2l7.27-22.561c1.024-3.457 2.773-4.411 5.431-4.411h13.519c-1.068.432-1.772 3.181-1.772 3.181l-6.521 22.652a5.725 5.725 0 0 1 -5.771 4.339zm-16.54 0v-29.99h15.9v29.99zm-15.018 0a5.725 5.725 0 0 1 -5.771-4.339l-6.521-22.652s-.704-2.749-1.772-3.181h13.518c2.658 0 4.408.954 5.43 4.408l7.27 22.561s1.113 3.022 2.159 3.2z" fill="#fff" transform="translate(5 27)"/></g></svg>