<svg width="48" height="48" viewBox="0 0 48 48" fill="none" xmlns="http://www.w3.org/2000/svg">
<rect width="48" height="48" rx="4" fill="#EED7FC"/>
<path fill-rule="evenodd" clip-rule="evenodd" d="M10 15H8V12H40V15H38V28C38 30.2091 36.2091 32 34 32H31.2482L34.8919 36.2773L32.6081 38.2227L27.3073 32H25.5V38H22.5V32H20.6927L15.3919 38.2227L13.1081 36.2773L16.7518 32H14C11.7909 32 10 30.2091 10 28V15ZM13 15V28C13 28.5523 13.4477 29 14 29H34C34.5523 29 35 28.5523 35 28V15H13Z" fill="#AF59E1"/>
</svg>
