<svg width="48" height="48" viewBox="0 0 48 48" fill="none" xmlns="http://www.w3.org/2000/svg">
<rect width="48" height="48" rx="4" fill="#EED7FC"/>
<path fill-rule="evenodd" clip-rule="evenodd" d="M16.6293 36.8908L28.6293 9.89079L31.3707 11.1092L19.3707 38.1092L16.6293 36.8908ZM35.9635 28L30.113 32.2904L31.887 34.7096L39.387 29.2096C39.7724 28.927 40 28.4778 40 28C40 27.5222 39.7724 27.073 39.387 26.7904L31.887 21.2904L30.113 23.7096L35.9635 28ZM12.0365 20L17.887 24.2904L16.113 26.7096L8.61295 21.2096C8.22764 20.927 8 20.4778 8 20C8 19.5222 8.22764 19.0729 8.61295 18.7904L16.113 13.2904L17.887 15.7096L12.0365 20Z" fill="#AF59E1"/>
</svg>
