<svg width="48" height="48" viewBox="0 0 48 48" fill="none" xmlns="http://www.w3.org/2000/svg">
<rect width="48" height="48" rx="4" fill="#D3F1A7"/>
<path d="M24.2344 10.0176C24.767 10.1012 25.2213 10.4685 25.4102 10.9863L28.5098 19.4883L37.0137 22.5898C37.6055 22.8057 37.9996 23.3682 38 23.998V24.002C37.9996 24.6318 37.6055 25.1943 37.0137 25.4102L28.5098 28.5098L25.4102 37.0137C25.1943 37.6055 24.6318 37.9996 24.002 38H23.998C23.3682 37.9996 22.8057 37.6055 22.5898 37.0137L19.4883 28.5098L10.9863 25.4102C10.3946 25.1943 10.0004 24.6318 10 24.002V23.998C10.0004 23.3682 10.3946 22.8057 10.9863 22.5898L19.4883 19.4883L22.5898 10.9863L22.6855 10.7734C22.9464 10.3015 23.4469 10.0003 23.998 10H24.002L24.2344 10.0176Z" fill="#6A9A23"/>
</svg>
