<svg width="48" height="48" viewBox="0 0 48 48" fill="none" xmlns="http://www.w3.org/2000/svg">
<rect width="48" height="48" rx="4" fill="#EED7FC"/>
<path fill-rule="evenodd" clip-rule="evenodd" d="M10 14C10 11.7909 11.7909 10 14 10H34C36.2091 10 38 11.7909 38 14V28C38 30.2091 36.2091 32 34 32H25.5V35H32V38H16V35H22.5V32H14C11.7909 32 10 30.2091 10 28V14ZM14 13C13.4477 13 13 13.4477 13 14V28C13 28.5523 13.4477 29 14 29H34C34.5523 29 35 28.5523 35 28V14C35 13.4477 34.5523 13 34 13H14Z" fill="#AF59E1"/>
</svg>
