<svg width="48" height="48" viewBox="0 0 48 48" fill="none" xmlns="http://www.w3.org/2000/svg">
<rect width="48" height="48" rx="4" fill="#CFE1FD"/>
<path fill-rule="evenodd" clip-rule="evenodd" d="M35 14C35 13.4477 34.5523 13 34 13L29.0355 13C28.7703 13 28.516 13.1054 28.3284 13.2929L23.5607 18.0607C23.2794 18.342 22.8978 18.5 22.5 18.5L14.0355 18.5C13.7703 18.5 13.516 18.6054 13.3284 18.7929L12.6213 19.5L16.0607 22.9394C16.6464 23.5252 16.6464 24.4749 16.0607 25.0607L11.5607 29.5607L9.43934 27.4394L12.8787 24L9.43934 20.5607C8.85355 19.9749 8.85355 19.0252 9.43934 18.4394L11.2071 16.6716C11.9573 15.9215 12.9747 15.5 14.0355 15.5L21.8787 15.5L26.2071 11.1716C26.9573 10.4215 27.9747 10 29.0355 10L34 10C36.2091 10 38 11.7909 38 14L38 18.9645C38 20.0254 37.5786 21.0428 36.8284 21.793L32.5 26.1214L32.5 33.9645C32.5 35.0254 32.0786 36.0428 31.3284 36.793L29.5607 38.5607C29.2794 38.842 28.8978 39.0001 28.5 39.0001C28.1022 39.0001 27.7206 38.842 27.4393 38.5607L24 35.1214L20.5607 38.5607L18.4393 36.4394L22.9393 31.9394C23.2206 31.6581 23.6022 31.5 24 31.5C24.3978 31.5 24.7794 31.6581 25.0607 31.9394L28.5 35.3787L29.2071 34.6716C29.3946 34.4841 29.5 34.2297 29.5 33.9645L29.5 25.5001C29.5 25.1022 29.658 24.7207 29.9393 24.4394L34.7071 19.6716C34.8946 19.4841 35 19.2297 35 18.9645L35 14ZM21.5607 28.5607L11.5607 38.5607L9.43934 36.4394L19.4393 26.4394L21.5607 28.5607Z" fill="#357DE8"/>
<path d="M33 17.25C33 18.4927 31.9926 19.5 30.75 19.5C29.5074 19.5 28.5 18.4927 28.5 17.25C28.5 16.0074 29.5074 15 30.75 15C31.9926 15 33 16.0074 33 17.25Z" fill="#357DE8"/>
</svg>
