<svg width="48" height="48" viewBox="0 0 48 48" fill="none" xmlns="http://www.w3.org/2000/svg">
<rect width="48" height="48" rx="4" fill="#D3F1A7"/>
<path fill-rule="evenodd" clip-rule="evenodd" d="M10 14C10 11.7909 11.7909 10 14 10H34C36.2091 10 38 11.7909 38 14V34C38 36.2091 36.2091 38 34 38H14C11.7909 38 10 36.2091 10 34V14ZM14 13C13.4477 13 13 13.4477 13 14V34C13 34.5523 13.4477 35 14 35H34C34.5523 35 35 34.5523 35 34V14C35 13.4477 34.5523 13 34 13H14ZM32 20H16V17H32V20ZM28 27H16V24H28V27Z" fill="#6A9A23"/>
</svg>
