<svg width="48" height="48" viewBox="0 0 48 48" fill="none" xmlns="http://www.w3.org/2000/svg">
<rect width="48" height="48" rx="4" fill="#F5E989"/>
<path d="M11 24C11 31.1797 16.8203 37 24 37C31.1797 37 37 31.1797 37 24C37 16.8203 31.1797 11 24 11C20.3168 11 17.046 12.5325 14.6973 15.0098L17.2949 15.5293C18.029 15.6765 18.543 16.3424 18.498 17.0898C18.4529 17.8377 17.8622 18.4386 17.1152 18.4961L10.6152 18.9961C10.1986 19.0281 9.78703 18.8835 9.48047 18.5996C9.17432 18.3158 9.00004 17.9175 9 17.5V11L9.02539 10.7266C9.13999 10.106 9.63744 9.61051 10.2813 9.51563C11.0176 9.40756 11.7236 9.85558 11.9375 10.5684L12.6191 12.8438C15.4963 9.86274 19.4947 8 24 8C32.8366 8 40 15.1634 40 24C40 32.8366 32.8366 40 24 40C15.1634 40 8 32.8366 8 24H11ZM25.5 15.5V24.2773L29.9375 27.8281L28.0625 30.1719L23.0625 26.1719C22.7067 25.8872 22.5 25.4557 22.5 25V15.5H25.5Z" fill="#B38600"/>
</svg>
