<?xml version="1.0" encoding="UTF-8"?>
<svg width="100pt" height="100pt" version="1.1" viewBox="0 0 100 100" xmlns="http://www.w3.org/2000/svg">
 <g>
  <path d="m55.5 20.453c0.007812-1.9961-1.0742-3.8359-2.8164-4.8008-1.7461-0.96875-3.8789-0.91016-5.5664 0.15625-1.6875 1.0625-2.6641 2.9609-2.5469 4.9531 0.12109 1.9883 1.3164 3.7578 3.1172 4.6133v2.1094h4.6875v-2.1094c1.9023-0.90234 3.1172-2.8164 3.125-4.9219z"/>
  <path d="m47.688 29.047h4.6875v3.125h-4.6875z"/>
  <path d="m38.445 11.074 2.2109-2.2109 4.418 4.418-2.2109 2.2109z"/>
  <path d="m48.469 5.6719h3.125v6.25h-3.125z"/>
  <path d="m54.969 13.34 4.418-4.418 2.2109 2.2109-4.418 4.418z"/>
  <path d="m58.562 18.953h6.25v3.125h-6.25z"/>
  <path d="m28.125 18.953h13.312v3.125h-13.312z"/>
  <path d="m84.375 44.672v39.344l-3.2812-0.17188c-1.3125 0-2.6562-0.10938-3.9688-0.10938-5.25-0.019531-10.484 0.50391-15.625 1.5625-3.5664 0.74219-7.0781 1.7461-10.5 3l-1.0781 0.39062-1.0781-0.39062c-3.4219-1.2539-6.9336-2.2578-10.5-3-5.1133-1.0547-10.324-1.5781-15.547-1.5625-1.3125 0-2.6562 0-3.9688 0.10938l-3.2812 0.17188v-39.344h-4.6094v42.188h26.688c3.4062 0.019531 6.6914 1.2695 9.25 3.5156 1.7656 1.5352 4.3906 1.5352 6.1562 0 2.5859-2.2891 5.9219-3.5469 9.375-3.5312h26.656v-42.188z"/>
  <path d="m46.875 43.75v40.625c-9.0742-2.9258-18.605-4.1602-28.125-3.6406v-40.625c1.9219-0.09375 4-0.14062 6.25-0.078125v6.25c-2.6914 2.0195-3.7891 5.5312-2.7227 8.7188 1.0625 3.1914 4.0469 5.3438 7.4102 5.3438s6.3477-2.1523 7.4102-5.3438c1.0664-3.1875-0.03125-6.6992-2.7227-8.7188v-5.4375c1.5625 0.20312 3.125 0.48438 4.6875 0.8125 2.6367 0.56641 5.2461 1.2617 7.8125 2.0938z"/>
  <path d="m73.438 40.078v32.953l-1.9531 0.78125c-4.5039 1.8711-8.7148 4.3867-12.5 7.4688-0.79688 0.64062-1.5625 1.3281-2.375 2.0312 1.375-0.375 2.7656-0.71875 4.25-1.0312 6.6758-1.3906 13.504-1.918 20.312-1.5625v-40.625c-2.2656-0.125-4.9062-0.14062-7.7344-0.015625z"/>
  <path d="m50 85.406c2.2227-2.3359 4.5977-4.5234 7.1094-6.5469 3.9805-3.2891 8.4297-5.9648 13.203-7.9375v-40.625c-4.7734 1.9727-9.2227 4.6484-13.203 7.9375-2.5117 2.0234-4.8867 4.2109-7.1094 6.5469z"/>
  <path d="m28.125 20.297h3.125v30.609h-3.125z"/>
  <path d="m34.375 52.484c0 6.25-9.375 6.25-9.375 0s9.375-6.25 9.375 0"/>
 </g>
</svg>
