<?xml version="1.0" encoding="UTF-8"?>
<svg width="100pt" height="100pt" version="1.1" viewBox="0 0 100 100" xmlns="http://www.w3.org/2000/svg">
 <g>
  <path d="m91.668 69.242-3.9375-14.695c-0.30469-1.0625-1.5156-21.516-1.5156-21.668-0.15234-0.60547-0.75781-1.2109-1.5156-1.2109h-74.094c-0.75781 0-1.3633 0.45312-1.5156 1.2109-1.9688 8.4844-0.91016 17.574 2.8789 25.453 8.332 17.574 6.668 34.848 6.8164 37.574 0 0.75781 0.75781 1.3633 1.5156 1.3633h45.152c0.75781 0 1.5156-0.60547 1.5156-1.5156v-9.3906h9.0898c2.5742 0 4.6953-2.1211 4.6953-4.6953v-7.8789c0-0.91016 0.75781-1.668 1.8164-1.668 1.5156-0.15234 2.8789 0 4.0898 0h1.668c3.0352 0.15234 3.793-1.3633 3.3398-2.8789z"/>
  <path d="m14.547 20.305 3.332-0.75781 1.9688 9.2422h11.516l-2.5742-11.668 3.332-0.75781c1.2109-0.30469 1.668-1.668 0.75781-2.5742l-11.668-10.91c-0.30469-0.30469-0.91016-0.45312-1.3633-0.45312-0.45312 0.15234-0.91016 0.45312-1.0625 0.91016l-6.0625 14.848c-0.44922 1.2109 0.60938 2.4219 1.8242 2.1211z"/>
  <path d="m81.969 28.789 2.5781-6.0625-15.152-6.5156-5.457 12.578z"/>
  <path d="m86.969 4.3945c0-0.60547-0.30469-1.2109-0.91016-1.3633-0.60547-0.30469-1.2109-0.15234-1.668 0.30469-1.2109 1.2109-10.91 8.1836-13.484 10.305l14.547 6.2109c0.15234-3.1836 1.5156-12.426 1.5156-15.457z"/>
  <path d="m60.453 23.484-4.6953-1.5156c-0.75781-0.30469-1.2109-1.0625-0.91016-1.9688 0.30469-0.75781 1.0625-1.2109 1.9688-0.91016l4.6953 1.5156 1.3633-4.3945-6.3633-1.9688c-0.75781-0.30469-1.2109-1.0625-1.0625-1.9688 0.30469-0.75781 1.0625-1.2109 1.9688-1.0625l6.3633 1.9688 1.3633-4.6953c0.30469-0.75781-0.30469-1.668-1.0625-1.8164l-11.816-3.4844c-0.75781-0.15234-1.668 0.15234-1.8164 1.0625l-7.418 24.543h15.91z"/>
 </g>
</svg>
