<?xml version="1.0" encoding="UTF-8"?>
<svg width="100pt" height="100pt" version="1.1" viewBox="0 0 100 100" xmlns="http://www.w3.org/2000/svg">
 <g>
  <path d="m34.695 33.031c0 4.3945 1.668 6.9688 2.5742 9.0898h2.4258c-1.3633-3.1836-2.7266-5-2.7266-9.0898 0-8.1836 7.1211-14.848 15.605-13.938 6.5156 0.75781 11.668 6.0625 12.273 12.574 0.45312 4.8477-1.3633 7.5742-2.7266 10.453h2.4258c1.2109-2.5742 3.0312-5.4531 2.5742-10.605-0.75781-7.5742-6.8164-13.789-14.395-14.547-9.6953-1.2109-18.031 6.5156-18.031 16.062z"/>
  <path d="m56.211 42.121c0.75781-3.332 1.9688-6.2109 3.7891-8.332 0.15234-0.30469 0.30469-0.60547 0.15234-0.91016-0.15234-0.30469-0.45312-0.45312-0.75781-0.45312l-4.5469 0.15234c-0.30469 0-0.60547 0.15234-0.60547 0.45312l-1.3633 2.8789-2.5742-7.1211c-0.15234-0.30469-0.45313-0.45312-0.60547-0.45312-0.30469 0-0.60547 0.15234-0.75781 0.45312l-1.668 3.7891h-4.5469c-0.30469 0-0.60547 0.15234-0.75781 0.45312-0.15234 0.30469 0 0.60547 0.15234 0.75781 1.8164 1.9688 3.0312 5 3.7891 8.332h1.5156c-0.60547-3.0312-1.668-5.9102-3.1836-8.0312h3.4844c0.30469 0 0.60547-0.15234 0.75781-0.45312l1.0625-2.4258 2.4258 7.1211c0.15234 0.30469 0.30469 0.45312 0.60547 0.45312 0.30469 0 0.60547-0.15234 0.75781-0.45312l1.9688-4.2422 2.4258-0.15234c-1.5156 2.1211-2.5742 5-3.1836 8.0312h1.6641z"/>
  <path d="m78.031 61.668c-2.8789-3.1836-0.91016-6.0625 0.15234-7.2734 0.30469-0.45312 0.60547-0.91016 0.45312-1.5156-0.15234-2.4258-1.5156-5.9102-2.7266-8.6367h-49.699l15-42.727c-13.938 1.0586-20.906 11.668-23.785 25.301-1.668 8.1836-0.45312 13.484 3.332 18.484-2.1211 6.9688-0.75781 15.152 2.2734 21.816 0.60547 1.2109 1.0625 2.2734 1.2109 2.8789 2.2734 8.332 2.2734 11.363 1.0625 20.305l-0.91016 8.1836h31.062c0-1.2109-0.15234-2.2734-0.45312-3.1836-1.3633-4.2422 1.2109-4.0898 1.2109-4.0898s1.0625 0.45312 10.453 2.4258c7.5742 1.5156 10-2.5742 8.7891-5-0.60547-1.3633-1.668-4.0898 0.60547-4.6953 3.0312-0.91016 0.60547-4.0898 0.60547-4.0898 3.6367-0.91016 1.5156-6.2109 1.5156-6.2109s0.60547 0.60547 3.6367-1.0625c3.332-1.668-0.15234-6.8203-3.7891-10.91z"/>
  <path d="m46.969 12.879c0.60547-0.15234 1.0625-0.60547 0.91016-1.3633l-0.75781-5c-0.15234-0.45312-0.75781-0.91016-1.3633-0.75781-0.60547 0.15234-1.0625 0.60547-0.91016 1.3633l0.75781 5c0.15234 0.45312 0.60547 0.91016 1.3633 0.75781z"/>
  <path d="m56.062 13.484c0.60547 0.15234 1.2109-0.15234 1.3633-0.75781l1.3633-4.8477c0.15234-0.60547-0.15234-1.2109-0.75781-1.3633s-1.2109 0.15234-1.3633 0.75781l-1.3633 4.8477c-0.30469 0.45312 0.14844 1.2109 0.75781 1.3633z"/>
  <path d="m65.758 17.121 3.1836-3.9375c0.45312-0.45312 0.30469-1.2109-0.15234-1.668-0.45312-0.45312-1.2109-0.30469-1.668 0.15234l-3.1836 3.9375c-0.45312 0.45312-0.30469 1.2109 0.15234 1.668 0.60547 0.30078 1.3633 0.30078 1.668-0.15234z"/>
  <path d="m71.668 24.848 4.5469-2.4258c0.60547-0.30469 0.75781-0.91016 0.45312-1.5156-0.30469-0.60547-0.91016-0.75781-1.5156-0.45312l-4.5469 2.4258c-0.60547 0.30469-0.75781 0.91016-0.45312 1.5156 0.30078 0.45312 1.0586 0.75781 1.5156 0.45312z"/>
  <path d="m72.426 34.695c0 0.60547 0.45312 1.0625 1.2109 1.0625h5c0.60547 0 1.0625-0.45312 1.0625-1.2109 0-0.60547-0.45312-1.0625-1.2109-1.0625h-5c-0.60938 0-1.0625 0.45312-1.0625 1.2109z"/>
  <path d="m34.695 33.031c0 4.3945 1.668 6.9688 2.5742 9.0898h2.4258c-1.3633-3.1836-2.7266-5-2.7266-9.0898 0-8.1836 7.1211-14.848 15.605-13.938 6.5156 0.75781 11.668 6.0625 12.273 12.574 0.45312 4.8477-1.3633 7.5742-2.7266 10.453h2.4258c1.2109-2.5742 3.0312-5.4531 2.5742-10.605-0.75781-7.5742-6.8164-13.789-14.395-14.547-9.6953-1.2109-18.031 6.5156-18.031 16.062z"/>
  <path d="m56.211 42.121c0.75781-3.332 1.9688-6.2109 3.7891-8.332 0.15234-0.30469 0.30469-0.60547 0.15234-0.91016-0.15234-0.30469-0.45312-0.45312-0.75781-0.45312l-4.5469 0.15234c-0.30469 0-0.60547 0.15234-0.60547 0.45312l-1.3633 2.8789-2.5742-7.1211c-0.15234-0.30469-0.45313-0.45312-0.60547-0.45312-0.30469 0-0.60547 0.15234-0.75781 0.45312l-1.668 3.7891h-4.5469c-0.30469 0-0.60547 0.15234-0.75781 0.45312-0.15234 0.30469 0 0.60547 0.15234 0.75781 1.8164 1.9688 3.0312 5 3.7891 8.332h1.5156c-0.60547-3.0312-1.668-5.9102-3.1836-8.0312h3.4844c0.30469 0 0.60547-0.15234 0.75781-0.45312l1.0625-2.4258 2.4258 7.1211c0.15234 0.30469 0.30469 0.45312 0.60547 0.45312 0.30469 0 0.60547-0.15234 0.75781-0.45312l1.9688-4.2422 2.4258-0.15234c-1.5156 2.1211-2.5742 5-3.1836 8.0312h1.6641z"/>
  <path d="m78.031 61.668c-2.8789-3.1836-0.91016-6.0625 0.15234-7.2734 0.30469-0.45312 0.60547-0.91016 0.45312-1.5156-0.15234-2.4258-1.5156-5.9102-2.7266-8.6367h-49.699l15-42.727c-13.938 1.0586-20.906 11.668-23.785 25.301-1.668 8.1836-0.45312 13.484 3.332 18.484-2.1211 6.9688-0.75781 15.152 2.2734 21.816 0.60547 1.2109 1.0625 2.2734 1.2109 2.8789 2.2734 8.332 2.2734 11.363 1.0625 20.305l-0.91016 8.1836h31.062c0-1.2109-0.15234-2.2734-0.45312-3.1836-1.3633-4.2422 1.2109-4.0898 1.2109-4.0898s1.0625 0.45312 10.453 2.4258c7.5742 1.5156 10-2.5742 8.7891-5-0.60547-1.3633-1.668-4.0898 0.60547-4.6953 3.0312-0.91016 0.60547-4.0898 0.60547-4.0898 3.6367-0.91016 1.5156-6.2109 1.5156-6.2109s0.60547 0.60547 3.6367-1.0625c3.332-1.668-0.15234-6.8203-3.7891-10.91z"/>
  <path d="m46.969 12.879c0.60547-0.15234 1.0625-0.60547 0.91016-1.3633l-0.75781-5c-0.15234-0.45312-0.75781-0.91016-1.3633-0.75781-0.60547 0.15234-1.0625 0.60547-0.91016 1.3633l0.75781 5c0.15234 0.45312 0.60547 0.91016 1.3633 0.75781z"/>
  <path d="m56.062 13.484c0.60547 0.15234 1.2109-0.15234 1.3633-0.75781l1.3633-4.8477c0.15234-0.60547-0.15234-1.2109-0.75781-1.3633s-1.2109 0.15234-1.3633 0.75781l-1.3633 4.8477c-0.30469 0.45312 0.14844 1.2109 0.75781 1.3633z"/>
  <path d="m65.758 17.121 3.1836-3.9375c0.45312-0.45312 0.30469-1.2109-0.15234-1.668-0.45312-0.45312-1.2109-0.30469-1.668 0.15234l-3.1836 3.9375c-0.45312 0.45312-0.30469 1.2109 0.15234 1.668 0.60547 0.30078 1.3633 0.30078 1.668-0.15234z"/>
  <path d="m71.668 24.848 4.5469-2.4258c0.60547-0.30469 0.75781-0.91016 0.45312-1.5156-0.30469-0.60547-0.91016-0.75781-1.5156-0.45312l-4.5469 2.4258c-0.60547 0.30469-0.75781 0.91016-0.45312 1.5156 0.30078 0.45312 1.0586 0.75781 1.5156 0.45312z"/>
  <path d="m72.426 34.695c0 0.60547 0.45312 1.0625 1.2109 1.0625h5c0.60547 0 1.0625-0.45312 1.0625-1.2109 0-0.60547-0.45312-1.0625-1.2109-1.0625h-5c-0.60938 0-1.0625 0.45312-1.0625 1.2109z"/>
 </g>
</svg>
