<?xml version="1.0" encoding="UTF-8"?>
<svg width="100pt" height="100pt" version="1.1" viewBox="0 0 100 100" xmlns="http://www.w3.org/2000/svg">
 <g>
  <path d="m16.062 29.848v45.91c0 0.75781 0.60547 1.5156 1.5156 1.5156h64.848c0.91016 0 1.5156-0.75781 1.5156-1.5156l-0.003906-45.91c0-0.75781-0.60547-1.5156-1.5156-1.5156h-12.879c-0.91016 2.2734-2.2734 4.5469-4.0898 6.5156-1.3633 1.5156-2.4258 3.0312-3.1836 4.8477 1.8164 1.3633 3.0312 3.4844 3.0312 5.9102 0 3.332-2.2734 6.2109-5.3047 7.1211l-0.75781 2.7266c-0.60547 1.9688-2.2734 3.1836-4.3945 3.1836h-11.211c-1.9688 0-3.7891-1.3633-4.3945-3.1836l-0.75781-2.7266c-3.0312-0.91016-5.3047-3.7891-5.3047-7.1211 0-2.4258 1.2109-4.6953 3.1836-5.9102-0.75781-1.668-1.8164-3.1836-3.1836-4.5469-1.8164-1.9688-3.1836-4.3945-4.2422-6.8164h-11.211c-1.0547 0-1.6602 0.75781-1.6602 1.5156z"/>
  <path d="m98.184 96.363-6.5156-13.184v-54.547c0-4.3945-3.6367-8.0312-8.0312-8.0312h-12.574c0 1.0625-0.15234 1.9688-0.30469 3.0312h12.727c2.7266 0 5 2.2734 5 5v53.332l-77.121 0.003906v-53.332c0-2.7266 2.2734-5 5-5h11.211c-0.15234-1.0625-0.15234-1.9688-0.30469-3.0312h-10.91c-4.3945 0-8.0312 3.6367-8.0312 8.0312v54.547l-6.5156 13.031c-0.30469 0.45312-0.15234 1.0625 0 1.5156 0.30859 0.45312 0.91406 0.75391 1.3711 0.75391h93.637c0.45313 0 1.0625-0.30469 1.2109-0.75781 0.30078-0.45312 0.30078-0.91016 0.15234-1.3633zm-23.184-4.5469h-50c-0.91016 0-1.5156-0.60547-1.5156-1.5156 0-0.75781 0.75781-1.5156 1.5156-1.5156h50c0.75781 0 1.5156 0.75781 1.5156 1.5156 0 0.76172-0.60547 1.5156-1.5156 1.5156z"/>
  <path d="m40.152 41.363c-2.2734 0.15234-4.0898 1.9688-4.0898 4.2422 0 2.4258 1.9688 4.3945 4.3945 4.3945h0.30469l1.3633 4.5469c0.15234 0.60547 0.75781 1.0625 1.5156 1.0625h11.211c0.60547 0 1.2109-0.45312 1.5156-1.0625l1.3633-4.5469h0.30469c2.4258 0 4.3945-1.9688 4.3945-4.3945 0-2.2734-1.668-4.0898-3.9375-4.2422 0.91016-3.0312 2.5742-5.9102 4.8477-8.4844 10.305-11.363 2.8789-29.395-11.816-31.211-17.586-2.1211-27.734 18.637-16.219 31.363 2.2695 2.5742 3.9375 5.3008 4.8477 8.332zm9.8477-16.668c0-2.5742 2.1211-4.5469 4.5469-4.5469 2.5742 0 4.5469 1.9688 4.5469 4.5469 0 2.5742-1.9688 4.5469-4.5469 4.5469-0.45312 0-1.0625-0.15234-1.5156-0.30469v12.273h-3.0312zm-6.2109-4.543c2.4258 0 4.5469 1.9688 4.5469 4.5469v16.516h-3.0312v-12.273c-0.45313 0.15234-1.0625 0.30469-1.5156 0.30469-2.5742 0-4.5469-1.9688-4.5469-4.5469s1.9688-4.5469 4.5469-4.5469z"/>
 </g>
</svg>
