<?xml version="1.0" encoding="UTF-8"?>
<svg width="100pt" height="100pt" version="1.1" viewBox="0 0 100 100" xmlns="http://www.w3.org/2000/svg">
 <g>
  <path d="m88.641 61.418v1.4922c0 3.6289-2.9805 6.2539-6.2383 6.2539h-3.2852c-3.4492 0-6.2383-2.8047-6.2383-6.2539v-1.4922z"/>
  <path d="m78.309 45.965h4.8984v13.273h-4.8984z"/>
  <path d="m96.746 33.625c-2.207-6.1641-7.5977-10.449-14.043-11.164-7.6133-0.83594-14.477 3.1953-17.492 10.133-2.7461 6.3125-1.5508 13.359 3.1211 18.359 2.043 2.1953 3.5977 4.6562 4.6133 7.3281l0.375 0.95703h2.0117v-14.766c0-0.19141 0.035157-0.37891 0.10938-0.55859l3.9414-9.7656c0.23047-0.5625 0.77734-0.93359 1.3828-0.93359 0.60938 0 1.1562 0.36719 1.3828 0.93359l3.9336 9.7422 0.007813 0.023437c0.070312 0.17578 0.10938 0.36719 0.10938 0.55859l-0.007813 14.766h2.0312l0.35938-0.98438c0.98438-2.7148 2.4609-5.0742 4.3594-7.0312 4.5664-4.6836 6.0117-11.418 3.8047-17.598z"/>
  <path d="m79.027 42.98h3.4609l-1.7305-4.2852z"/>
  <path d="m69.879 68.105c-0.67969-0.28125 2.5312 0.78516-17.539-5.7461v-6.8203c4.8398-3.6719 7.7344-9.3906 7.7344-15.496v-4.7891c2.7305-3.1328 3.9258-6.375 3.5664-9.6133-0.44922-4.1484-3.375-7.0312-4.6562-8.1055-0.64062-10.836-7.9102-12.477-12.238-12.477-3.4023 0-6.4023 0.94141-7.2383 1.2383-10.344 0.16406-14.91-2.1328-16.656-3.4766-0.48047-0.37109-1.0469-0.58203-1.6562-0.58203-1.3594 0-2.5391 1.0312-2.7305 2.3867-2.3867 16.312 0.015625 23.375 2.6719 26.418v9c0 6.1055 2.8945 11.82 7.7305 15.492v6.8203c-12.312 4.0117-17.125 5.5586-17.539 5.7461-5.5234 2.375-9.0898 7.8789-9.0898 14.043v15.617h76.73v-15.613c0-6.1641-3.5664-11.672-9.0898-14.043zm-45.762-28.062c0-0.14844 0.03125-10.863 0.03125-10.18l-0.47656-0.46094c-0.85156-0.83594-2.2539-2.8945-2.8789-7.5977 4.3438 3.4922 13.312 9.2695 25.223 9.2695 4.4609 0 9.3438-0.82031 14.539-2.8672-0.62109 3.0977-3.2227 5.5781-3.4609 5.8945v5.9414c0 9.043-7.3125 16.477-16.492 16.477-9.2109 0.003907-16.484-7.4609-16.484-16.477zm7.7344 23.391v-6c0.027344 0.015625 0.042969 0.027344 0.074219 0.027344 2.6953 1.3477 5.6406 2.043 8.6719 2.043 3.1367 0 6.1016-0.75391 8.6875-2.043 0.015625 0 0.042969-0.015626 0.074219-0.03125v6.0039l-8.7617 3.7891z"/>
  <path d="m47.312 39.148c0.94531 0 1.7148-0.76953 1.7148-1.7148 0-0.94531-0.76953-1.7148-1.7148-1.7148s-1.7148 0.76953-1.7148 1.7148c-0.003906 0.94531 0.76562 1.7148 1.7148 1.7148z"/>
  <path d="m33.891 39.023c0.82422 0 1.5898-0.76563 1.5898-1.5898 0-0.82422-0.76562-1.5898-1.5898-1.5898s-1.5898 0.76562-1.5898 1.5898c0 0.82422 0.76562 1.5898 1.5898 1.5898z"/>
  <path d="m33.797 49.641c2.2578 0.95703 4.5312 1.4336 6.8047 1.4336 2.2734 0 4.5469-0.47656 6.8047-1.4336l-1.168-2.75c-3.793 1.6094-7.4844 1.6094-11.281 0z"/>
 </g>
</svg>
