<svg enable-background="new 0 0 367.2 489.7" viewBox="0 0 367.2 489.7" xmlns="http://www.w3.org/2000/svg"><path d="m0 183.7h30.6v30.6h-30.6z" fill="#4063ad"/><path d="m306 183.7h30.6v30.6h-30.6z" fill="#4063ad"/><path d="m336.6 214.3h30.6v30.6h-30.6z" fill="#4063ad"/><g fill="#b08b72"><path d="m61.4 214.3h30.6v30.6h-30.6z"/><path d="m153.1 153.1h-30.6v30.6h30.6 30.6v-30.6z"/><path d="m183.7 122.6h30.6v30.6h-30.6z"/><path d="m306 214.3v30.6 30.6 30.6h30.6v-30.6-30.6-30.6z"/><path d="m214.3 214.3h30.6v30.6h-30.6z"/><path d="m183.7 306.1v-30.6-30.6-30.6h-30.6v30.6h-30.6v30.6h-30.6-30.5-30.6v30.6h30.6v30.6 30.5h30.5v30.6h30.6v30.8h30.6v-30.8-30.6h-30.6v-30.5h30.6 30.6 30.6v-30.6z"/><path d="m183.7 459.1v30.6h61.2v-30.6h-30.6z"/></g><path d="m244.9 214.3h30.6v30.6h-30.6z" fill="#eed7c9"/><path d="m275.5 153.1v-30.5h-30.6v-30.6h-30.6v30.6 30.5h-30.6v30.6h30.6 30.6 30.6 30.5v-30.6z" fill="#eed7c9"/><path d="m244.9 214.3h30.6v30.6h-30.6z" fill="#eed7c9"/><path d="m91.9 214.3h30.6v30.6h-30.6z" fill="#eed7c9"/><path d="m244.9 397.8h30.6v30.6h-30.6z" fill="#060808"/><path d="m91.9 397.8h30.6v30.6h-30.6z" fill="#060808"/><path d="m183.7 428.6h-30.6-30.6v30.5 30.6h30.6 30.6v-30.6h30.6 30.6v-30.5h-30.6z" fill="#72482c"/><path d="m275.5 244.9v30.6h-30.6-30.6v-30.6h-30.6v30.6 30.6h30.6v30.6h30.6v30.5h-30.6v30.6h-30.6-30.6v30.8h30.6 30.6 30.6v-30.8h30.6v-30.6h30.5v-30.5-30.6-30.6-30.6z" fill="#eed7c9"/><path d="m214.3 336.7h-30.6-30.6-30.6v30.5h30.6v30.6h30.6 30.6v-30.6h30.6v-30.5z" fill="#b7696a"/><path d="m214.3 244.9v30.6h30.6 30.6v-30.6h-30.6z" fill="#060808"/><path d="m336.6 92v-30.8h-30.6v-30.5h-30.5v-30.6h-30.6-30.6-30.6-30.6-30.6-30.6v30.6h-30.5v30.5h-30.6v30.8 30.6h-30.8v30.5 30.6h30.8v30.6h-30.8v30.6 30.6 30.6 30.6h30.8v30.5 30.6h30.6v30.8h30.5 30.6-30.6v-30.8-30.6h-30.5v-30.5-30.6h-30.6v-30.6h30.6 30.5 30.6v-30.6h-30.6-30.5v-30.6h30.5 30.6v30.6h30.6v-30.6h30.6v30.6h30.6v-30.6h30.6 30.6v30.6h30.5v-30.6-30.6h-30.5-30.6-30.6-30.6-30.6-30.6v-30.6h30.6 30.6v-30.5h30.6v-30.6h30.6v30.6h30.6v30.5h30.5v30.6h30.6v30.6h30.8v-30.6-30.6-30.5-30.6z" fill="#060808"/><path d="m367.4 244.9h-30.8v61.2h-30.6v61.1h-30.5v61.4h30.5v-30.8h30.6v-61.1h30.8" fill="#060808"/></svg>