<?xml version="1.0" encoding="utf-8"?>
<!-- Generator: Adobe Illustrator 18.1.1, SVG Export Plug-In . SVG Version: 6.00 Build 0)  -->
<svg version="1.1" id="Layer_1" xmlns="http://www.w3.org/2000/svg" xmlns:xlink="http://www.w3.org/1999/xlink" x="0px" y="0px"
	 viewBox="0 198 612 612" enable-background="new 0 198 612 612" xml:space="preserve">
<rect y="198" fill="#FFFFFF" width="612" height="612"/>
<g>
	<g>
		<rect x="122.3" y="442.8" fill="#4063AD" width="30.6" height="30.6"/>
		<g>
			<rect x="428.3" y="442.8" fill="#4063AD" width="30.6" height="30.6"/>
			<rect x="458.9" y="473.4" fill="#4063AD" width="30.6" height="30.6"/>
		</g>
		<rect x="183.7" y="473.4" fill="#B08B72" width="30.6" height="30.6"/>
		<polygon fill="#B08B72" points="275.4,412.2 244.8,412.2 244.8,442.8 275.4,442.8 306,442.8 306,412.2 		"/>
		<rect x="306" y="381.7" fill="#B08B72" width="30.6" height="30.6"/>
		<polygon fill="#B08B72" points="428.3,473.4 428.3,504 428.3,534.6 428.3,565.2 458.9,565.2 458.9,534.6 458.9,504 458.9,473.4 		
			"/>
		<rect x="336.6" y="473.4" fill="#B08B72" width="30.6" height="30.6"/>
		<polygon fill="#B08B72" points="306,565.2 306,534.6 306,504 306,473.4 275.4,473.4 275.4,504 244.8,504 244.8,534.6 214.2,534.6 
			183.7,534.6 153.1,534.6 153.1,565.2 183.7,565.2 183.7,595.8 183.7,626.3 214.2,626.3 214.2,656.9 244.8,656.9 244.8,687.7 
			275.4,687.7 275.4,656.9 275.4,626.3 244.8,626.3 244.8,595.8 275.4,595.8 306,595.8 336.6,595.8 336.6,565.2 		"/>
		<g>
			<polygon fill="#B08B72" points="306,718.2 306,748.8 367.2,748.8 367.2,718.2 336.6,718.2 			"/>
		</g>
		<rect x="367.2" y="473.4" fill="#EED7C9" width="30.6" height="30.6"/>
		<polygon fill="#EED7C9" points="397.8,412.2 397.8,381.7 367.2,381.7 367.2,351.1 336.6,351.1 336.6,381.7 336.6,412.2 306,412.2 
			306,442.8 336.6,442.8 367.2,442.8 397.8,442.8 428.3,442.8 428.3,412.2 		"/>
		<rect x="367.2" y="473.4" fill="#EED7C9" width="30.6" height="30.6"/>
		<rect x="214.2" y="473.4" fill="#EED7C9" width="30.6" height="30.6"/>
		<g>
			<rect x="367.2" y="656.9" fill="#060808" width="30.6" height="30.6"/>
			<rect x="214.2" y="656.9" fill="#060808" width="30.6" height="30.6"/>
			<polygon fill="#72482C" points="306,687.7 275.4,687.7 244.8,687.7 244.8,718.2 244.8,748.8 275.4,748.8 306,748.8 306,718.2 
				336.6,718.2 367.2,718.2 367.2,687.7 336.6,687.7 			"/>
		</g>
		<polygon fill="#EED7C9" points="397.8,504 397.8,534.6 367.2,534.6 336.6,534.6 336.6,504 306,504 306,534.6 306,565.2 
			336.6,565.2 336.6,595.8 367.2,595.8 367.2,626.3 336.6,626.3 336.6,656.9 306,656.9 275.4,656.9 275.4,687.7 306,687.7 
			336.6,687.7 367.2,687.7 367.2,656.9 397.8,656.9 397.8,626.3 428.3,626.3 428.3,595.8 428.3,565.2 428.3,534.6 428.3,504 		"/>
		<polygon fill="#B7696A" points="336.6,595.8 306,595.8 275.4,595.8 244.8,595.8 244.8,626.3 275.4,626.3 275.4,656.9 306,656.9 
			336.6,656.9 336.6,626.3 367.2,626.3 367.2,595.8 		"/>
		<polygon fill="#060808" points="336.6,504 336.6,534.6 367.2,534.6 397.8,534.6 397.8,504 367.2,504 		"/>
		<polygon fill="#060808" points="458.9,351.1 458.9,320.3 428.3,320.3 428.3,289.8 397.8,289.8 397.8,259.2 367.2,259.2 
			336.6,259.2 306,259.2 275.4,259.2 244.8,259.2 214.2,259.2 214.2,289.8 183.7,289.8 183.7,320.3 153.1,320.3 153.1,351.1 
			153.1,381.7 122.3,381.7 122.3,412.2 122.3,442.8 153.1,442.8 153.1,473.4 122.3,473.4 122.3,504 122.3,534.6 122.3,565.2 
			122.3,595.8 153.1,595.8 153.1,626.3 153.1,656.9 183.7,656.9 183.7,656.9 183.7,687.7 183.7,687.7 183.7,687.7 214.2,687.7 
			244.8,687.7 244.8,687.7 214.2,687.7 214.2,656.9 214.2,626.3 183.7,626.3 183.7,595.8 183.7,565.2 153.1,565.2 153.1,534.6 
			183.7,534.6 214.2,534.6 244.8,534.6 244.8,504 214.2,504 183.7,504 183.7,473.4 214.2,473.4 244.8,473.4 244.8,504 275.4,504 
			275.4,473.4 306,473.4 306,504 336.6,504 336.6,473.4 367.2,473.4 397.8,473.4 397.8,504 428.3,504 428.3,473.4 428.3,442.8 
			397.8,442.8 367.2,442.8 336.6,442.8 306,442.8 275.4,442.8 244.8,442.8 244.8,412.2 275.4,412.2 306,412.2 306,381.7 
			336.6,381.7 336.6,351.1 367.2,351.1 367.2,381.7 397.8,381.7 397.8,412.2 428.3,412.2 428.3,442.8 458.9,442.8 458.9,473.4 
			489.7,473.4 489.7,442.8 489.7,412.2 489.7,381.7 489.7,351.1 		"/>
		<polyline fill="#060808" points="489.7,504 458.9,504 458.9,565.2 428.3,565.2 428.3,626.3 397.8,626.3 397.8,687.7 397.8,687.7 
			428.3,687.7 428.3,656.9 458.9,656.9 458.9,656.9 458.9,595.8 489.7,595.8 		"/>
	</g>
</g>
</svg>
